PathFileType	3	(X/Y/Z)	D:\minhoCalibration\240510\subject2_KPNP\preferred\preferred15.trc
DataRate	CameraRate	NumFrames	NumMarkers	Units	OrigDataRate	OrigDataStartFrame	OrigNumFrames
200.0	200.0	18	10	mm	200.0	245	186	
Frame#	Time	Left_Ankle_Outer1			Left_Ankle_Inner1			Left_Knee_Outer1			Left_Knee_Inner1			Left_Wrist1			Right_Wrist1			Right_Knee_Inner1			Right_Knee_Outer1			Right_Ankle_Inner1			Right_Ankle_Outer1			
		X1	Y1	Z1	X2	Y2	Z2	X3	Y3	Z3	X4	Y4	Z4	X5	Y5	Z5	X6	Y6	Z6	X7	Y7	Z7	X8	Y8	Z8	X9	Y9	Z9	X10	Y10	Z10	
245	1.215	-639.68719	96.038719	-798.44617	-652.71667	98.703758	-743.18134	-440.05597	512.95636	-776.48547	-509.49991	495.59808	-698.11261	-580.66718	921.69818	-884.20154	-909.06927	962.11774	-958.9834	-915.52417	452.53424	-990.52863	-987.44153	491.84705	-1031.339	-920.52942	97.74485	-1191.1614	-1012.2953	118.63297	-1227.6204
246	1.22	-640.50336	92.413345	-798.94037	-654.08569	95.240143	-743.25732	-440.09442	509.21481	-775.89215	-509.53729	492.60425	-697.87518	-577.14246	920.48981	-882.92419	-906.91345	961.73022	-953.85962	-915.43286	451.0213	-984.50012	-987.57074	491.51968	-1025.2063	-920.1062	99.527565	-1189.765	-1011.8107	120.37958	-1226.564
247	1.225	-640.9834	89.227501	-800.31354	-655.28955	92.189888	-743.90973	-439.87463	505.75525	-775.32556	-509.79739	489.68295	-697.37122	-573.48846	919.35614	-881.65851	-904.41705	961.24841	-947.78955	-915.6958	450.27173	-979.13708	-987.82166	491.26657	-1019.065	-919.37274	100.67503	-1189.2573	-1012.1046	121.73554	-1224.4684
248	1.23	-641.71021	86.935532	-801.53644	-656.74176	90.326141	-745.03674	-438.9884	502.48019	-774.62079	-510.12433	486.74506	-696.65247	-570.37927	918.2359	-880.1001	-902.03546	960.1983	-940.09833	-915.84497	449.23978	-972.64349	-988.01202	491.45145	-1012.2738	-919.38861	103.04712	-1187.3599	-1011.1085	124.59063	-1223.5947
249	1.235	-642.659	86.287926	-802.44275	-658.00208	90.234596	-745.9278	-437.06406	499.8364	-773.42151	-510.05304	484.10028	-695.73138	-566.80554	917.43951	-878.77277	-899.21698	959.82562	-934.90979	-916.23157	448.53867	-966.30499	-988.22351	491.02713	-1005.835	-919.03729	105.53519	-1185.791	-1010.585	127.24295	-1221.9926
250	1.24	-643.21509	87.003769	-803.08264	-658.9176	90.776001	-746.76477	-434.2139	498.12473	-771.29865	-508.82816	482.24756	-694.80261	-562.64838	917.00677	-878.1347	-896.86633	959.1355	-927.23956	-916.50598	447.66904	-959.54285	-988.16785	491.54929	-998.63281	-917.90369	108.05269	-1184.4432	-1010.2391	130.69313	-1219.9539
251	1.245	-642.67255	87.734962	-803.48047	-658.81738	91.183617	-747.48175	-431.00217	497.51471	-768.5249	-506.57104	481.40378	-693.64569	-560.06635	916.28992	-876.38123	-893.82361	959.27057	-918.81152	-916.30219	446.5415	-951.91064	-988.98328	491.37891	-990.29504	-917.43561	110.80917	-1182.3636	-1009.7	134.0213	-1217.8464
252	1.25	-641.4162	87.967163	-803.53809	-657.7879	91.478165	-747.48322	-428.07037	497.6297	-765.70782	-503.84235	481.1384	-692.46118	-555.83105	916.13904	-875.53027	-890.93616	959.18744	-911.90399	-917.36658	446.65509	-943.92169	-989.47272	492.06061	-981.93115	-917.32739	114.12668	-1179.6741	-1009.2141	138.39394	-1215.1975
253	1.255	-639.67261	88.292847	-803.60193	-656.45331	91.919052	-747.5462	-425.39886	498.11346	-763.32983	-501.4769	481.05038	-691.32635	-552.13776	916.21997	-874.49127	-887.58307	959.48767	-904.39319	-917.81989	446.5061	-935.02063	-990.06238	493.24741	-973.23865	-916.91229	118.13113	-1176.6373	-1008.8675	143.19975	-1212.4684
254	1.26	-638.0025	88.830856	-803.79187	-655.13049	92.400772	-747.98547	-422.72159	498.90686	-761.53271	-498.55835	482.19998	-689.88849	-548.29163	916.65784	-873.58264	-884.42828	960.01379	-899.05951	-918.37158	446.64212	-925.03162	-992.04926	494.18066	-963.03027	-916.7417	122.71868	-1173.2423	-1008.0302	148.36209	-1209.3195
255	1.265	-636.76117	89.124123	-804.24622	-654.04309	92.83297	-748.34607	-420.43378	499.69031	-760.15546	-495.95901	483.0867	-689.09863	-544.35669	917.60156	-872.49664	-880.82697	960.64911	-890.39807	-919.16614	447.04361	-914.37286	-992.8725	495.97351	-951.50848	-916.25214	127.88091	-1169.2385	-1007.0536	154.04095	-1205.5336
256	1.27	-635.15082	89.729973	-805.18317	-653.12323	93.036446	-749.13611	-418.21277	500.3078	-759.33459	-493.09293	484.18137	-688.42352	-539.8634	918.82214	-871.80389	-876.66742	961.85986	-884.06873	-920.58948	447.60342	-902.56134	-994.76294	496.86765	-938.58569	-915.62988	133.55801	-1164.7224	-1006.5715	160.06763	-1200.1101
257	1.275	-634.24884	89.414444	-806.05542	-652.49188	93.15966	-750.08063	-416.21747	500.55539	-759.0603	-490.15656	484.82333	-687.987	-535.32129	920.34387	-871.3075	-872.48785	962.82123	-876.01709	-922.45807	448.44949	-889.89154	-990.31665	495.66626	-938.83923	-916.37115	140.13132	-1158.0188	-1006.4261	167.04091	-1194.632
258	1.28	-633.50208	89.239998	-806.98596	-652.13562	93.135902	-750.91296	-414.54547	500.09836	-759.31561	-487.34836	484.8212	-687.73975	-530.31531	922.27808	-870.29718	-867.60126	964.23102	-868.45978	-924.30023	449.57693	-876.41919	-996.81708	502.72559	-912.91809	-916.49298	146.85378	-1151.5522	-1005.9422	174.60393	-1187.9247
259	1.285	-633.25427	88.808556	-807.51691	-652.03357	93.045036	-751.70471	-412.82233	499.30774	-760.11029	-484.79926	484.21295	-687.91687	-525.38794	924.46881	-869.45856	-862.57733	965.96637	-860.17194	-925.84515	451.09946	-862.16077	-998.79443	504.34543	-898.25293	-915.86188	153.71893	-1144.6466	-1005.4736	184.08601	-1181.1498
260	1.29	-633.18994	88.542778	-807.76514	-652.05457	92.848824	-752.05865	-411.37772	498.05435	-761.24493	-482.6925	483.11713	-688.31989	-520.13574	926.98236	-868.84296	-857.2832	967.77136	-852.71649	-926.97424	453.27798	-847.0119	-994.8299	503.46811	-891.70135	-916.86841	161.87956	-1136.1078	-1005.6664	193.01538	-1172.6932
261	1.295	-633.05194	88.302788	-807.93109	-654.28528	90.705032	-756.16107	-409.90027	496.71152	-762.5423	-480.32477	481.83759	-689.19952	-514.8396	929.34155	-867.99054	-851.90625	969.7959	-845.81293	-927.60712	455.8439	-830.98975	-998.14655	512.0896	-860.7475	-917.25732	169.32124	-1127.3796	-1006.2014	202.64615	-1163.1659
262	1.3	-632.78168	88.153542	-808.13245	-651.16992	93.229378	-752.20477	-408.40286	495.28622	-763.8042	-478.67633	480.37909	-690.03448	-509.96036	931.85577	-866.43677	-846.51434	972.17413	-838.70721	-927.46045	458.83032	-814.02881	-996.41156	514.63757	-847.78345	-919.67004	177.4601	-1117.4606	-1006.8313	212.43605	-1152.7888
